<svg width="54" height="54" viewBox="0 0 54 54" fill="none" xmlns="http://www.w3.org/2000/svg">
<path d="M47.9386 10.4363H39.1683L37.8263 7.48617C36.8399 5.32544 34.6849 3.93799 32.3096 3.9342H21.0481C18.6723 3.93752 16.5168 5.32544 15.5305 7.48617L14.1889 10.4363H6.06122C2.71524 10.4401 0.00378826 13.1515 0 16.4975V43.9383C0.00378826 47.2842 2.71524 49.9957 6.06122 49.9995H47.9386C51.2845 49.9957 53.996 47.2842 53.9998 43.9383V16.4975C53.996 13.1515 51.2845 10.4401 47.9386 10.4363ZM51.5753 43.9383C51.5729 45.946 49.9463 47.5726 47.9386 47.575H6.06122C4.05344 47.5726 2.42686 45.946 2.42449 43.9383V16.4975C2.42686 14.4897 4.05344 12.8631 6.06122 12.8608H14.9693C15.4447 12.8608 15.8757 12.5828 16.0726 12.1505L17.7371 8.48959C18.3295 7.19306 19.6227 6.36059 21.0481 6.35869H32.3096C33.7345 6.36106 35.0272 7.19353 35.6191 8.49006L37.2836 12.1509C37.4806 12.5833 37.912 12.8612 38.3869 12.8612H47.9381C49.9454 12.8636 51.5725 14.4907 51.5748 16.498L51.5753 43.9383Z" fill="white"/>
<path d="M26.6784 14.5414C18.517 14.5414 11.9013 21.1576 11.9013 29.3189C11.9013 37.4798 18.517 44.096 26.6784 44.096C34.8397 44.096 41.4559 37.4798 41.4559 29.3189C41.4464 21.1614 34.8359 14.5509 26.6784 14.5414ZM26.6784 41.6715C19.8562 41.6715 14.3258 36.1411 14.3258 29.3189C14.3258 22.4967 19.8562 16.9659 26.6784 16.9659C33.5005 16.9659 39.0314 22.4967 39.0314 29.3189C39.0234 36.1378 33.4977 41.6639 26.6784 41.6715Z" fill="white"/>
<path d="M26.6784 22.7799C23.0672 22.7799 20.1398 25.7073 20.1398 29.3184C20.1398 32.9301 23.0672 35.8575 26.6784 35.8575C30.29 35.8575 33.2174 32.9301 33.2174 29.3184C33.2131 25.7092 30.2881 22.7837 26.6784 22.7799ZM26.6784 33.433C24.4064 33.433 22.5643 31.5909 22.5643 29.3189C22.5643 27.0464 24.4064 25.2044 26.6784 25.2044C28.9509 25.2044 30.7929 27.0464 30.7929 29.3189C30.7901 31.59 28.9499 33.4306 26.6784 33.433Z" fill="white"/>
</svg>
