<svg width="61" height="61" viewBox="0 0 61 61" fill="none" xmlns="http://www.w3.org/2000/svg">
<g clip-path="url(#clip0)">
<path d="M24.4751 31.3365C29.3699 31.3365 33.3377 27.3688 33.3377 22.474C33.3377 17.5792 29.3699 13.6115 24.4751 13.6115C19.5803 13.6115 15.6126 17.5792 15.6126 22.474C15.6182 27.3662 19.5829 31.3309 24.4751 31.3365ZM24.4751 16.2286C27.9238 16.2286 30.7194 19.0243 30.7194 22.473C30.7194 25.9216 27.9238 28.7173 24.4751 28.7173C21.0265 28.7173 18.2308 25.9216 18.2308 22.473C18.2349 19.0258 21.028 16.2327 24.4751 16.2286Z" fill="white"/>
<path d="M54.4546 6.27954H6.54551C2.93219 6.28363 0.00409095 9.21173 0 12.8251V48.1708C0.00409095 51.7842 2.93219 54.7123 6.54551 54.7163H54.4546C58.0679 54.7123 60.996 51.7842 61.0001 48.1708V12.8251C60.996 9.21173 58.0679 6.28363 54.4546 6.27954ZM6.54551 8.89775H54.4546C56.6223 8.9003 58.3793 10.6569 58.3819 12.8251V38.6343L50.5493 27.5366C49.3343 25.8159 47.3655 24.7844 45.2592 24.766C43.1523 24.7476 41.1657 25.7438 39.921 27.4435L31.0058 39.6156C29.7647 41.317 27.4006 41.7332 25.6533 40.5581L18.9881 36.0979C16.799 34.6293 13.9419 34.6196 11.7431 36.0739L2.61872 42.1505V12.8251C2.62127 10.6574 4.37782 8.9003 6.54551 8.89775ZM54.4546 52.0981H6.54551C4.37731 52.0956 2.62076 50.3385 2.61821 48.1708V45.2969L13.1882 38.258C14.507 37.3871 16.2191 37.3937 17.5312 38.2738L24.1964 42.7345C27.1092 44.693 31.0493 43.9986 33.1172 41.1625L42.0324 28.9904C42.779 27.9702 43.971 27.3725 45.2351 27.3837C46.4992 27.395 47.6805 28.0137 48.4092 29.0462L58.3809 43.1748V48.1708C58.3783 50.3385 56.6218 52.0951 54.4546 52.0981Z" fill="white"/>
</g>
<defs>
<clipPath id="clip0">
<rect width="61" height="61" fill="white"/>
</clipPath>
</defs>
</svg>
