<svg width="53" height="53" viewBox="0 0 53 53" fill="none" xmlns="http://www.w3.org/2000/svg">
<g clip-path="url(#clip0)">
<path d="M44.4928 1.38306C44.2513 0.987816 43.8212 0.746826 43.3585 0.746826H9.64167C9.17839 0.746826 8.74887 0.987816 8.50736 1.38306L0.19528 14.9798C-0.0825853 15.4342 -0.0623296 16.0107 0.246699 16.4449L25.3071 51.6274L25.3159 51.6528L25.3237 51.6502L25.4904 51.8845C25.7397 52.2345 26.1433 52.4428 26.5733 52.4428H26.5749C27.0054 52.4423 27.4095 52.233 27.6583 51.8814L27.824 51.6476L27.8312 51.6497L27.8401 51.6243L52.7555 16.4418C53.0625 16.0081 53.0822 15.4332 52.8049 14.9798L44.4928 1.38306ZM29.4891 3.40603H41.4996L38.2005 13.0643L29.4891 3.40603ZM35.7636 14.3326H17.3482L26.5053 4.06823L35.7636 14.3326ZM14.8619 13.1256L11.5151 3.40655H23.5334L14.8619 13.1256ZM12.4655 14.3326H3.70729L9.30927 5.1693L12.4655 14.3326ZM36.8595 16.9918L26.5686 47.1213L16.1936 16.9929L36.8595 16.9918ZM43.7018 5.18644L49.2928 14.3326H40.5772L43.7018 5.18644ZM3.90154 16.9918H13.3807L22.2516 42.7544L3.90154 16.9918ZM39.6688 16.9918H49.1074L30.8758 42.7367L39.6688 16.9918Z" fill="white"/>
</g>
<defs>
<clipPath id="clip0">
<rect width="53" height="53" fill="white"/>
</clipPath>
</defs>
</svg>
