<svg width="38" height="38" viewBox="0 0 38 38" fill="none" xmlns="http://www.w3.org/2000/svg">
<g clip-path="url(#clip0)">
<path d="M33.3611 4.54077H4.6468C2.08359 4.54077 0 6.62436 0 9.18757V28.8127C0 31.3759 2.08359 33.4595 4.6468 33.4595H33.3532C35.9164 33.4595 38 31.3759 38 28.8127V9.19544C38.0079 6.63223 35.9243 4.54077 33.3611 4.54077ZM35.885 28.8127C35.885 30.2043 34.7527 31.3365 33.3611 31.3365H4.6468C3.25512 31.3365 2.12291 30.2043 2.12291 28.8127V9.19544C2.12291 7.80375 3.25512 6.67154 4.6468 6.67154H33.3532C34.7449 6.67154 35.8771 7.80375 35.8771 9.19544V28.8127H35.885Z" fill="white"/>
<path d="M23.9652 18.7564L33.2588 10.4221C33.6913 10.0289 33.7306 9.36061 33.3375 8.92031C32.9443 8.48786 32.276 8.44855 31.8357 8.84168L19.0196 20.3447L16.5193 18.1117C16.5115 18.1038 16.5036 18.096 16.5036 18.0881C16.4486 18.0331 16.3935 17.9859 16.3306 17.9387L6.15641 8.83382C5.7161 8.44069 5.04778 8.48 4.65465 8.92031C4.26152 9.36061 4.30083 10.0289 4.74114 10.4221L14.1448 18.8272L4.78045 27.594C4.35587 27.995 4.33228 28.6633 4.73327 29.0958C4.94557 29.3159 5.22862 29.4339 5.51167 29.4339C5.77114 29.4339 6.03061 29.3395 6.23503 29.1508L15.7409 20.2582L18.3199 22.5619C18.5243 22.7428 18.7759 22.8293 19.0275 22.8293C19.2791 22.8293 19.5386 22.7349 19.7351 22.5541L22.3848 20.1796L31.8357 29.1587C32.0401 29.3552 32.3075 29.4496 32.5669 29.4496C32.85 29.4496 33.1252 29.3395 33.3375 29.1194C33.7385 28.6948 33.7227 28.0186 33.2981 27.6176L23.9652 18.7564Z" fill="white"/>
</g>
<defs>
<clipPath id="clip0">
<rect width="38" height="38" fill="white"/>
</clipPath>
</defs>
</svg>
