<svg width="56" height="55" viewBox="0 0 56 55" fill="none" xmlns="http://www.w3.org/2000/svg">
<g clip-path="url(#clip0)">
<path d="M1.33333 19.2909C2.06979 19.2909 2.66667 18.7047 2.66667 17.9814V6.54762C2.66927 4.37872 4.45833 2.62161 6.66667 2.61905H18.3083C19.0448 2.61905 19.6417 2.03283 19.6417 1.30952C19.6417 0.586216 19.0448 0 18.3083 0H6.66667C2.98646 0.00409226 0.00416667 2.93313 0 6.54762V17.9814C0 18.7047 0.596875 19.2909 1.33333 19.2909Z" fill="white"/>
<path d="M49.3333 0H37.6917C36.9552 0 36.3583 0.586216 36.3583 1.30952C36.3583 2.03283 36.9552 2.61905 37.6917 2.61905H49.3333C51.5417 2.62161 53.3307 4.37872 53.3333 6.54762V17.9814C53.3333 18.7047 53.9302 19.2909 54.6667 19.2909C55.4031 19.2909 56 18.7047 56 17.9814V6.54762C55.9958 2.93313 53.0135 0.00409226 49.3333 0Z" fill="white"/>
<path d="M54.6667 35.7091C53.9302 35.7091 53.3333 36.2953 53.3333 37.0186V48.4524C53.3307 50.6213 51.5417 52.3784 49.3333 52.381H37.6917C36.9552 52.381 36.3583 52.9672 36.3583 53.6905C36.3583 54.4138 36.9552 55 37.6917 55H49.3333C53.0135 54.9959 55.9958 52.0669 56 48.4524V37.0186C56 36.2953 55.4031 35.7091 54.6667 35.7091Z" fill="white"/>
<path d="M18.3083 52.381H6.66667C4.45833 52.3784 2.66927 50.6213 2.66667 48.4524V37.0186C2.66667 36.2953 2.06979 35.7091 1.33333 35.7091C0.596875 35.7091 0 36.2953 0 37.0186V48.4524C0.00416667 52.0669 2.98646 54.9959 6.66667 55H18.3083C19.0448 55 19.6417 54.4138 19.6417 53.6905C19.6417 52.9672 19.0448 52.381 18.3083 52.381Z" fill="white"/>
<path d="M28 17.1998C22.2078 17.1998 17.5125 21.8113 17.5125 27.5001C17.5125 33.1888 22.2078 37.8003 28 37.8003C33.7922 37.8003 38.4875 33.1888 38.4875 27.5001C38.4813 21.8139 33.7896 17.206 28 17.1998ZM28 35.1812C23.6807 35.1812 20.1792 31.7422 20.1792 27.5001C20.1792 23.2579 23.6807 19.8189 28 19.8189C32.3193 19.8189 35.8208 23.2579 35.8208 27.5001C35.8162 31.7401 32.3172 35.1766 28 35.1812Z" fill="white"/>
</g>
<defs>
<clipPath id="clip0">
<rect width="56" height="55" fill="white"/>
</clipPath>
</defs>
</svg>
