<svg width="51" height="52" viewBox="0 0 51 52" fill="none" xmlns="http://www.w3.org/2000/svg">
<g clip-path="url(#clip0)">
<path d="M36.032 29.9202C35.254 29.1314 34.3157 28.7098 33.3212 28.7098C32.3347 28.7098 31.3883 29.1236 30.5783 29.9124L28.0439 32.3722C27.8354 32.2629 27.6269 32.1614 27.4264 32.0599C27.1376 31.9193 26.8649 31.7865 26.6324 31.646C24.2584 30.1779 22.101 28.2646 20.0318 25.7891C19.0292 24.5553 18.3556 23.5167 17.8663 22.4625C18.524 21.8768 19.1335 21.2677 19.727 20.682C19.9516 20.4633 20.1761 20.2369 20.4007 20.0182C22.0849 18.3783 22.0849 16.2542 20.4007 14.6143L18.2112 12.4824C17.9626 12.2404 17.7059 11.9905 17.4653 11.7406C16.9841 11.2564 16.4788 10.7566 15.9575 10.2881C15.1796 9.5384 14.2492 9.14014 13.2708 9.14014C12.2923 9.14014 11.3459 9.5384 10.5439 10.2881C10.5359 10.2959 10.5359 10.2959 10.5279 10.3037L7.80103 12.9822C6.77444 13.9818 6.18897 15.2 6.06065 16.6135C5.86817 18.8937 6.5579 21.0178 7.08723 22.4078C8.3865 25.8204 10.3274 28.9831 13.2227 32.3722C16.7355 36.4564 20.9621 39.6815 25.7902 41.954C27.6349 42.8052 30.0971 43.8126 32.848 43.9844C33.0164 43.9922 33.1928 44 33.3533 44C35.2059 44 36.7618 43.3518 37.9809 42.0633C37.9889 42.0477 38.0049 42.0399 38.013 42.0243C38.43 41.5323 38.9112 41.0872 39.4165 40.6108C39.7614 40.2907 40.1142 39.9549 40.4591 39.6035C41.2531 38.7991 41.6702 37.862 41.6702 36.9015C41.6702 35.9332 41.2451 35.0039 40.4351 34.223L36.032 29.9202ZM38.9032 38.1432C38.8952 38.1432 38.8952 38.151 38.9032 38.1432C38.5904 38.4711 38.2696 38.7679 37.9247 39.0959C37.4034 39.58 36.8741 40.0876 36.3769 40.6577C35.5668 41.5011 34.6124 41.8993 33.3613 41.8993C33.241 41.8993 33.1126 41.8993 32.9923 41.8915C30.6104 41.7431 28.3968 40.8373 26.7366 40.0642C22.1972 37.9245 18.2112 34.8868 14.8989 31.0369C12.164 27.8273 10.3354 24.8599 9.12435 21.6737C8.37848 19.7293 8.10579 18.2143 8.22609 16.7853C8.3063 15.8716 8.6672 15.1141 9.33288 14.4659L12.0677 11.803C12.4607 11.4438 12.8778 11.2486 13.2868 11.2486C13.7921 11.2486 14.2011 11.5453 14.4578 11.7952C14.4658 11.803 14.4738 11.8109 14.4818 11.8187C14.971 12.2638 15.4362 12.7245 15.9254 13.2165C16.1741 13.4664 16.4307 13.7163 16.6874 13.974L18.8769 16.1059C19.727 16.9336 19.727 17.6989 18.8769 18.5267C18.6443 18.7531 18.4197 18.9796 18.1871 19.1983C17.5134 19.8698 16.8718 20.4946 16.1741 21.1037C16.158 21.1193 16.142 21.1271 16.134 21.1427C15.4442 21.8143 15.5726 22.4703 15.7169 22.9154C15.7249 22.9388 15.733 22.9623 15.741 22.9857C16.3104 24.3288 17.1124 25.5939 18.3315 27.1011L18.3395 27.1089C20.5531 29.764 22.8869 31.8334 25.4614 33.4186C25.7902 33.6217 26.1271 33.7857 26.4479 33.9419C26.7366 34.0824 27.0093 34.2152 27.2419 34.3557C27.274 34.3714 27.3061 34.3948 27.3381 34.4104C27.6108 34.5432 27.8675 34.6056 28.1321 34.6056C28.7978 34.6056 29.2148 34.1996 29.3512 34.0668L32.0941 31.3961C32.3668 31.1306 32.7999 30.8104 33.3051 30.8104C33.8024 30.8104 34.2114 31.115 34.46 31.3805C34.4681 31.3883 34.4681 31.3883 34.4761 31.3961L38.8952 35.6989C39.7213 36.4954 39.7213 37.3154 38.9032 38.1432Z" fill="white"/>
<path d="M26.5361 15.8013C28.6374 16.1449 30.5462 17.1132 32.07 18.597C33.5939 20.0807 34.5803 21.9393 34.9412 23.9852C35.0295 24.5006 35.4866 24.8599 36.0079 24.8599C36.0721 24.8599 36.1282 24.852 36.1924 24.8442C36.7859 24.7505 37.1789 24.2039 37.0826 23.626C36.6495 21.1505 35.4465 18.8937 33.6099 17.1054C31.7733 15.3171 29.4555 14.1458 26.9131 13.7241C26.3196 13.6304 25.7662 14.013 25.6619 14.5831C25.5577 15.1531 25.9426 15.7076 26.5361 15.8013Z" fill="white"/>
<path d="M43.9559 23.3215C43.2421 19.2451 41.2691 15.5358 38.2375 12.584C35.2059 9.63212 31.3963 7.71108 27.2098 7.01607C26.6243 6.91455 26.0709 7.30501 25.9667 7.87507C25.8704 8.45295 26.2634 8.99178 26.8569 9.09329C30.5943 9.71021 34.0029 11.436 36.7137 14.0677C39.4245 16.7072 41.1889 20.026 41.8225 23.6651C41.9107 24.1805 42.3679 24.5397 42.8892 24.5397C42.9534 24.5397 43.0095 24.5319 43.0737 24.5241C43.6591 24.4382 44.0601 23.8915 43.9559 23.3215Z" fill="white"/>
</g>
<defs>
<clipPath id="clip0">
<rect width="38" height="37" fill="white" transform="translate(6 7)"/>
</clipPath>
</defs>
</svg>
