<svg width="24" height="24" viewBox="0 0 24 24" fill="none" xmlns="http://www.w3.org/2000/svg">
<g clip-path="url(#clip0)">
<path d="M23.9948 12.3513C24.1907 5.50347 18.6477 -0.0984617 11.8212 0.000811123C5.25093 0.0963598 -0.0500439 5.5225 0.000232626 12.0933C0.0363107 16.8016 2.78412 20.864 6.75876 22.7968C6.98867 22.9086 7.25483 22.7348 7.24523 22.4793C7.21625 21.7072 7.24122 20.8819 7.39571 20.2184C7.54776 19.5651 8.14439 17.0387 8.53665 15.379C8.72757 14.5711 8.75062 13.7321 8.59688 12.9162C8.54643 12.6484 8.50988 12.3339 8.50988 11.9844C8.50988 10.2108 9.53788 8.8866 10.8179 8.8866C11.9061 8.8866 12.4318 9.70366 12.4318 10.6833C12.4318 11.7777 11.735 13.4139 11.3754 14.9303C11.0749 16.1999 12.0121 17.2352 13.2642 17.2352C15.5313 17.2352 17.2739 14.8448 17.2739 11.3942C17.2739 8.3402 15.0795 6.20484 11.946 6.20484C8.31669 6.20484 6.1864 8.92705 6.1864 11.7403C6.1864 12.8366 6.60875 14.0122 7.13566 14.6512C7.23982 14.7775 7.25518 14.8882 7.22417 15.0171C7.12734 15.42 6.91215 16.2864 6.8699 16.4636C6.81422 16.6972 6.68503 16.7466 6.44337 16.6343C4.85017 15.8927 3.85424 13.5636 3.85424 11.6928C3.85424 7.66909 6.77767 3.97399 12.2821 3.97399C16.7069 3.97399 20.1456 7.12698 20.1456 11.3408C20.1456 15.7368 17.3739 19.2747 13.5267 19.2747C12.51 19.2747 11.5412 18.8592 10.9716 18.2959C10.7965 18.1226 10.5003 18.2016 10.4378 18.4398C10.2373 19.2041 9.91303 20.4402 9.80858 20.8422C9.62051 21.5654 9.22417 22.4078 8.82685 23.1414C8.72129 23.3363 8.82807 23.5771 9.04297 23.6316C10.0239 23.8804 11.0527 24.0088 12.1133 23.9989C18.4101 23.9405 23.8148 18.6458 23.9948 12.3513Z" fill="#9DBDB2"/>
</g>
<defs>
<clipPath id="clip0">
<rect width="24" height="24" fill="white"/>
</clipPath>
</defs>
</svg>
